<svg xmlns="http://www.w3.org/2000/svg" xmlns:xlink="http://www.w3.org/1999/xlink" width="41" zoomAndPan="magnify" viewBox="0 0 30.75 30.750001" height="41" preserveAspectRatio="xMidYMid meet" version="1.0"><defs><clipPath id="9486d15850"><path d="M 18 18 L 30.503906 18 L 30.503906 30.503906 L 18 30.503906 Z M 18 18 " clip-rule="nonzero"/></clipPath></defs><path fill="#ffffff" d="M 10.414062 20.832031 C 4.671875 20.832031 0 16.160156 0 10.417969 C 0 4.671875 4.671875 0.00390625 10.414062 0.00390625 C 16.160156 0.00390625 20.828125 4.671875 20.828125 10.417969 C 20.828125 16.160156 16.160156 20.832031 10.414062 20.832031 Z M 10.414062 1.574219 C 5.539062 1.574219 1.570312 5.542969 1.570312 10.417969 C 1.570312 15.292969 5.539062 19.261719 10.414062 19.261719 C 15.289062 19.261719 19.257812 15.292969 19.257812 10.417969 C 19.257812 5.542969 15.289062 1.574219 10.414062 1.574219 Z M 10.414062 1.574219 " fill-opacity="1" fill-rule="nonzero"/><path fill="#ffffff" d="M 10.414062 18.273438 C 6.085938 18.273438 2.558594 14.746094 2.558594 10.417969 C 2.558594 6.089844 6.085938 2.5625 10.414062 2.5625 C 14.742188 2.5625 18.269531 6.089844 18.269531 10.417969 C 18.269531 14.746094 14.742188 18.273438 10.414062 18.273438 Z M 10.414062 4.132812 C 6.949219 4.132812 4.132812 6.953125 4.132812 10.417969 C 4.132812 13.882812 6.949219 16.703125 10.414062 16.703125 C 13.878906 16.703125 16.699219 13.882812 16.699219 10.417969 C 16.699219 6.953125 13.878906 4.132812 10.414062 4.132812 Z M 10.414062 4.132812 " fill-opacity="1" fill-rule="nonzero"/><path fill="#ffffff" d="M 18.582031 23.117188 C 18.132812 23.117188 17.710938 22.941406 17.394531 22.625 L 16.453125 21.683594 C 15.800781 21.03125 15.800781 19.964844 16.453125 19.308594 L 19.304688 16.457031 C 19.960938 15.800781 21.019531 15.800781 21.679688 16.457031 L 22.621094 17.398438 C 22.941406 17.714844 23.113281 18.132812 23.113281 18.585938 C 23.113281 19.035156 22.941406 19.453125 22.621094 19.769531 L 19.769531 22.625 C 19.449219 22.941406 19.03125 23.117188 18.582031 23.117188 Z M 20.492188 17.539062 C 20.46875 17.539062 20.441406 17.554688 20.421875 17.570312 L 17.566406 20.425781 C 17.527344 20.464844 17.527344 20.53125 17.566406 20.570312 L 18.507812 21.511719 C 18.550781 21.550781 18.617188 21.550781 18.652344 21.511719 L 21.507812 18.65625 C 21.523438 18.636719 21.535156 18.613281 21.535156 18.585938 C 21.535156 18.554688 21.523438 18.53125 21.507812 18.511719 L 20.566406 17.570312 C 20.546875 17.546875 20.519531 17.539062 20.492188 17.539062 Z M 20.492188 17.539062 " fill-opacity="1" fill-rule="nonzero"/><g clip-path="url(#9486d15850)"><path fill="#ffffff" d="M 26.808594 30.347656 C 26.183594 30.347656 25.554688 30.109375 25.082031 29.632812 L 18.363281 22.917969 C 18.058594 22.613281 18.058594 22.117188 18.363281 21.804688 L 21.800781 18.367188 C 22.105469 18.0625 22.605469 18.0625 22.917969 18.367188 L 29.636719 25.089844 C 30.097656 25.550781 30.351562 26.164062 30.351562 26.816406 C 30.351562 27.46875 30.097656 28.082031 29.636719 28.542969 L 28.527344 29.640625 C 28.054688 30.109375 27.429688 30.347656 26.808594 30.347656 Z M 20.039062 22.363281 L 26.195312 28.519531 C 26.53125 28.855469 27.082031 28.855469 27.417969 28.519531 L 28.527344 27.421875 C 28.691406 27.261719 28.78125 27.042969 28.78125 26.808594 C 28.78125 26.578125 28.691406 26.359375 28.523438 26.199219 L 22.359375 20.042969 Z M 20.039062 22.363281 " fill-opacity="1" fill-rule="nonzero"/></g><path fill="#ffffff" d="M 16.664062 17.78125 L 17.773438 16.671875 L 18.988281 17.886719 L 17.878906 18.996094 Z M 16.664062 17.78125 " fill-opacity="1" fill-rule="nonzero"/><path fill="#ffffff" d="M 13.113281 11.203125 L 7.730469 11.203125 C 7.511719 11.203125 7.332031 10.902344 7.328125 10.523438 C 7.332031 10.148438 7.511719 9.847656 7.730469 9.847656 L 13.109375 9.847656 C 13.324219 9.847656 13.503906 10.152344 13.503906 10.523438 C 13.503906 10.898438 13.328125 11.203125 13.113281 11.203125 Z M 13.113281 11.203125 " fill-opacity="1" fill-rule="nonzero"/><path stroke-linecap="butt" transform="matrix(0.743557, 0.0242221, -0.0242221, 0.743557, 8.104859, 10.061365)" fill="none" stroke-linejoin="miter" d="M 0.00136531 0.500561 L 3.174512 0.502262 " stroke="#ffffff" stroke-width="1" stroke-opacity="1" stroke-miterlimit="4"/></svg>